<svg version="1.1" xmlns="http://www.w3.org/2000/svg" xmlns:xlink="http://www.w3.org/1999/xlink" data-browser="Firefox[80.0]" preserveAspectRatio="xMidYMid meet" viewBox="0 0 312 108"><g id="logo__item--business" class="logo__item">
                <g class="logo__item__inner" transform="translate(0.98333740234375 105.26781839622436) scale(1 1) rotate(0 0 0)">
                    <text dy="" dominant-baseline="auto" alignment-baseline="auto" font-family="'Montserrat-Bold'" font-size="32px" fill="#C82928" letter-spacing="0" font-weight="normal" font-style="normal">FOX INTERVIEWER</text>
                </g>
            </g><g id="logo__item--logo_0" class="logo__item">
    <g class="logo__item__inner" transform="translate(78.2039488100977 -27.149999999999977) scale(1.3463645527457597 1.3463645527457597) rotate(0 0 0)">
        
<g>
	<g>
		<path fill="#C82928" d="M27.458,23.148l5.378,18.929l17.636,0.032L36.594,53.171L4.438,42.167    c5.576-0.141,16.734-0.077,16.734-0.077L27.458,23.148z"></path>
	</g>
	<g>
		<path fill="#00003D" d="M80.874,39.702c4.007-0.557,8.194-1.076,12.188-0.16c-1.869,6.274-3.892,12.503-5.743,18.782    c-7.976-2.797-16.797-3.182-24.946-0.883c-7.925,2.208-15.306,6.445-21.202,12.188c-4.756-3.379-9.455-6.816-14.161-10.254    c-4.059,2.943-14.313,10.152-14.313,10.152s3.579-11.094,5.358-16.645c-4.693-3.489-9.571-6.741-14.123-10.416    c0,0,23.526,8.445,36.791,23.238C47.848,51.73,66.131,42.244,80.874,39.702z"></path>
	</g>
</g>

    </g>
</g></svg>